<?xml version="1.0" encoding="UTF-8"?>
<svg xmlns="http://www.w3.org/2000/svg" width="960" height="420" viewBox="0 0 960 420" role="img" aria-labelledby="title desc">
  <title id="title">Vaishakh Suresh&#39;s Noiceboard</title>
  <desc id="desc">Animated GitHub profile card highlighting repo number 69: noiceboard.</desc>
  <defs>
    <linearGradient id="bg" x1="0" y1="0" x2="1" y2="1">
      <stop offset="0" stop-color="#06110c"/>
      <stop offset="0.48" stop-color="#102018"/>
      <stop offset="1" stop-color="#251513"/>
    </linearGradient>
    <linearGradient id="accent" x1="0" y1="0" x2="1" y2="0">
      <stop offset="0" stop-color="#2de38c"/>
      <stop offset="0.55" stop-color="#f6c945"/>
      <stop offset="1" stop-color="#ff6b4a"/>
    </linearGradient>
    <radialGradient id="halo" cx="50%" cy="50%" r="50%">
      <stop offset="0" stop-color="#2de38c" stop-opacity="0.36"/>
      <stop offset="0.55" stop-color="#2de38c" stop-opacity="0.08"/>
      <stop offset="1" stop-color="#2de38c" stop-opacity="0"/>
    </radialGradient>
    <filter id="softGlow" x="-30%" y="-30%" width="160%" height="160%">
      <feGaussianBlur stdDeviation="6" result="blur"/>
      <feMerge>
        <feMergeNode in="blur"/>
        <feMergeNode in="SourceGraphic"/>
      </feMerge>
    </filter>
    <style>
      .label { fill: #9fbea9; font: 700 12px ui-sans-serif, system-ui, -apple-system, BlinkMacSystemFont, "Segoe UI", sans-serif; letter-spacing: 0; }
      .tiny { fill: #9fbea9; font: 500 11px ui-sans-serif, system-ui, -apple-system, BlinkMacSystemFont, "Segoe UI", sans-serif; letter-spacing: 0; }
      .title { fill: #f2fff7; font: 800 38px ui-sans-serif, system-ui, -apple-system, BlinkMacSystemFont, "Segoe UI", sans-serif; letter-spacing: 0; }
      .subtitle { fill: #d7fbe8; font: 600 17px ui-sans-serif, system-ui, -apple-system, BlinkMacSystemFont, "Segoe UI", sans-serif; letter-spacing: 0; }
      .metric { fill: #f8fff9; font: 800 24px ui-sans-serif, system-ui, -apple-system, BlinkMacSystemFont, "Segoe UI", sans-serif; letter-spacing: 0; }
      .metric-label { fill: #8cad98; font: 600 11px ui-sans-serif, system-ui, -apple-system, BlinkMacSystemFont, "Segoe UI", sans-serif; letter-spacing: 0; }
      .repo { fill: #f8fff9; font: 750 16px ui-sans-serif, system-ui, -apple-system, BlinkMacSystemFont, "Segoe UI", sans-serif; letter-spacing: 0; }
      .muted { fill: #a9c9b4; font: 500 12px ui-sans-serif, system-ui, -apple-system, BlinkMacSystemFont, "Segoe UI", sans-serif; letter-spacing: 0; }
      .ring { animation: ring 9s linear infinite; transform-origin: 692px 206px; }
      .float { animation: float 5s ease-in-out infinite; }
      .pulse { animation: pulse 2.8s ease-in-out infinite; }
      .draw { stroke-dasharray: 6 12; animation: dash 13s linear infinite; }
      @keyframes ring { to { transform: rotate(360deg); } }
      @keyframes dash { to { stroke-dashoffset: -140; } }
      @keyframes pulse { 0%, 100% { opacity: .56; } 50% { opacity: 1; } }
      @keyframes float { 0%, 100% { transform: translateY(0); } 50% { transform: translateY(-7px); } }
      @media (prefers-reduced-motion: reduce) { * { animation: none !important; } }
    </style>
  </defs>

  <rect width="960" height="420" rx="0" fill="url(#bg)"/>
  <path d="M0 342 C154 296 244 404 390 344 C520 291 615 284 754 330 C846 361 896 328 960 303 L960 420 L0 420 Z" fill="#10281e" opacity="0.78"/>
  <path d="M0 363 C128 326 242 382 362 360 C493 336 581 292 738 350 C845 390 902 354 960 335 L960 420 L0 420 Z" fill="#3b1f17" opacity="0.34"/>
  <rect x="22" y="22" width="916" height="376" rx="8" fill="#07130e" opacity="0.72" stroke="#244634"/>
  <rect x="34" y="34" width="892" height="352" rx="8" fill="none" stroke="#2de38c" opacity="0.16"/>

  <g transform="translate(52 58)">
    <text class="label" x="0" y="0">NOICEBOARD / vaishakh3</text>
    <text class="title" x="0" y="52">Vaishakh Suresh</text>
    <text class="subtitle" x="0" y="86">Repo #69 went noice: noiceboard</text>
    <text class="muted" x="0" y="112">A noice little dashboard for the profile.</text>

    <g transform="translate(0 158)">
      <g transform="translate(0 0)">
    <text class="metric" x="0" y="0">70</text>
    <text class="metric-label" x="0" y="22">public repos</text>
  </g>
      <g transform="translate(112 0)">
    <text class="metric" x="0" y="0">5</text>
    <text class="metric-label" x="0" y="22">stars</text>
  </g>
      <g transform="translate(224 0)">
    <text class="metric" x="0" y="0">5</text>
    <text class="metric-label" x="0" y="22">forks</text>
  </g>
      <g transform="translate(336 0)">
    <text class="metric" x="0" y="0">20</text>
    <text class="metric-label" x="0" y="22">active in 2026</text>
  </g>
    </g>

    <g transform="translate(0 258)">
      <text class="label" x="0" y="0">LANGUAGE SIGNAL</text>
      <g transform="translate(0 24)">
        <text class="muted" x="0" y="0">Other</text>
        <rect x="118" y="-10" width="236" height="8" rx="4" fill="#1a3326"/>
        <rect x="118" y="-10" width="68" height="8" rx="4" fill="#2de38c"/>
        <text class="tiny" x="366" y="0">29%</text>
      </g>
      <g transform="translate(0 47)">
        <text class="muted" x="0" y="0">JavaScript</text>
        <rect x="118" y="-10" width="236" height="8" rx="4" fill="#1a3326"/>
        <rect x="118" y="-10" width="61" height="8" rx="4" fill="#f6c945"/>
        <text class="tiny" x="366" y="0">26%</text>
      </g>
      <g transform="translate(0 70)">
        <text class="muted" x="0" y="0">TypeScript</text>
        <rect x="118" y="-10" width="236" height="8" rx="4" fill="#1a3326"/>
        <rect x="118" y="-10" width="44" height="8" rx="4" fill="#69d2e7"/>
        <text class="tiny" x="366" y="0">19%</text>
      </g>
      <g transform="translate(0 93)">
        <text class="muted" x="0" y="0">Python</text>
        <rect x="118" y="-10" width="236" height="8" rx="4" fill="#1a3326"/>
        <rect x="118" y="-10" width="30" height="8" rx="4" fill="#4f9dff"/>
        <text class="tiny" x="366" y="0">13%</text>
      </g>
    </g>
  </g>

  <g transform="translate(568 42)">
    <rect x="0" y="0" width="326" height="322" rx="8" fill="#08160f" opacity="0.82" stroke="#315642"/>
    <circle cx="164" cy="164" r="126" fill="url(#halo)" class="pulse"/>
    <circle cx="164" cy="164" r="114" fill="none" stroke="#34523f" stroke-width="1"/>
    <circle cx="164" cy="164" r="82" fill="none" stroke="#f6c945" stroke-opacity="0.28" stroke-width="1" class="ring"/>
    <circle cx="164" cy="164" r="46" fill="none" stroke="#ff6b4a" stroke-opacity="0.28" stroke-width="1" class="ring"/>
    <line x1="50" y1="164" x2="278" y2="164" stroke="#315642" stroke-opacity="0.55"/>
    <line x1="164" y1="50" x2="164" y2="278" stroke="#315642" stroke-opacity="0.55"/>
    <line x1="224" y1="178" x2="227" y2="191" stroke="#5c7e68" stroke-opacity="0.24" stroke-width="1" class="draw"/>
    <line x1="227" y1="191" x2="262" y2="206" stroke="#5c7e68" stroke-opacity="0.24" stroke-width="1" class="draw"/>
    <line x1="262" y1="206" x2="205" y2="199" stroke="#5c7e68" stroke-opacity="0.24" stroke-width="1" class="draw"/>
    <line x1="205" y1="199" x2="208" y2="239" stroke="#5c7e68" stroke-opacity="0.24" stroke-width="1" class="draw"/>
    <line x1="208" y1="239" x2="190" y2="261" stroke="#5c7e68" stroke-opacity="0.24" stroke-width="1" class="draw"/>
    <line x1="190" y1="261" x2="171" y2="221" stroke="#5c7e68" stroke-opacity="0.24" stroke-width="1" class="draw"/>
    <line x1="171" y1="221" x2="157" y2="203" stroke="#5c7e68" stroke-opacity="0.24" stroke-width="1" class="draw"/>
    <line x1="157" y1="203" x2="147" y2="208" stroke="#5c7e68" stroke-opacity="0.24" stroke-width="1" class="draw"/>
    <line x1="147" y1="208" x2="125" y2="208" stroke="#5c7e68" stroke-opacity="0.24" stroke-width="1" class="draw"/>
    <line x1="125" y1="208" x2="106" y2="217" stroke="#5c7e68" stroke-opacity="0.24" stroke-width="1" class="draw"/>
    <line x1="106" y1="217" x2="51" y2="214" stroke="#5c7e68" stroke-opacity="0.24" stroke-width="1" class="draw"/>
    <line x1="51" y1="214" x2="88" y2="188" stroke="#5c7e68" stroke-opacity="0.24" stroke-width="1" class="draw"/>
    <line x1="88" y1="188" x2="52" y2="180" stroke="#5c7e68" stroke-opacity="0.24" stroke-width="1" class="draw"/>
    <line x1="52" y1="180" x2="82" y2="146" stroke="#5c7e68" stroke-opacity="0.24" stroke-width="1" class="draw"/>
    <line x1="82" y1="146" x2="74" y2="135" stroke="#5c7e68" stroke-opacity="0.24" stroke-width="1" class="draw"/>
    <line x1="74" y1="135" x2="62" y2="111" stroke="#5c7e68" stroke-opacity="0.24" stroke-width="1" class="draw"/>
    <line x1="62" y1="111" x2="88" y2="110" stroke="#5c7e68" stroke-opacity="0.24" stroke-width="1" class="draw"/>
    <line x1="88" y1="110" x2="135" y2="114" stroke="#5c7e68" stroke-opacity="0.24" stroke-width="1" class="draw"/>
    <line x1="135" y1="114" x2="134" y2="113" stroke="#5c7e68" stroke-opacity="0.24" stroke-width="1" class="draw"/>
    <line x1="134" y1="113" x2="162" y2="90" stroke="#5c7e68" stroke-opacity="0.24" stroke-width="1" class="draw"/>
    <line x1="162" y1="90" x2="187" y2="72" stroke="#5c7e68" stroke-opacity="0.24" stroke-width="1" class="draw"/>
    <line x1="187" y1="72" x2="204" y2="80" stroke="#5c7e68" stroke-opacity="0.24" stroke-width="1" class="draw"/>
    <line x1="204" y1="80" x2="222" y2="109" stroke="#5c7e68" stroke-opacity="0.24" stroke-width="1" class="draw"/>
    <line x1="222" y1="109" x2="231" y2="101" stroke="#5c7e68" stroke-opacity="0.24" stroke-width="1" class="draw"/>
    <line x1="231" y1="101" x2="245" y2="125" stroke="#5c7e68" stroke-opacity="0.24" stroke-width="1" class="draw"/>
    <line x1="245" y1="125" x2="256" y2="146" stroke="#5c7e68" stroke-opacity="0.24" stroke-width="1" class="draw"/>
    <line x1="256" y1="146" x2="240" y2="161" stroke="#5c7e68" stroke-opacity="0.24" stroke-width="1" class="draw"/>
    <circle cx="224" cy="178" r="4" fill="#f6c945" opacity="0.72" class="pulse"/>
    <circle cx="227" cy="191" r="4" fill="#69d2e7" opacity="0.72" class=""/>
    <circle cx="262" cy="206" r="4" fill="#69d2e7" opacity="0.72" class=""/>
    <circle cx="205" cy="199" r="3" fill="#4f9dff" opacity="0.72" class="pulse"/>
    <circle cx="208" cy="239" r="3" fill="#4f9dff" opacity="0.72" class=""/>
    <circle cx="190" cy="261" r="3" fill="#f6c945" opacity="0.72" class=""/>
    <circle cx="171" cy="221" r="3" fill="#63e6a4" opacity="0.72" class="pulse"/>
    <circle cx="157" cy="203" r="3" fill="#f6c945" opacity="0.72" class=""/>
    <circle cx="147" cy="208" r="3" fill="#69d2e7" opacity="0.72" class=""/>
    <circle cx="125" cy="208" r="3" fill="#f6c945" opacity="0.72" class="pulse"/>
    <circle cx="106" cy="217" r="3" fill="#69d2e7" opacity="0.72" class=""/>
    <circle cx="51" cy="214" r="3" fill="#69d2e7" opacity="0.72" class=""/>
    <circle cx="88" cy="188" r="3" fill="#f6c945" opacity="0.72" class="pulse"/>
    <circle cx="52" cy="180" r="3" fill="#e58f65" opacity="0.72" class=""/>
    <circle cx="82" cy="146" r="3" fill="#f6c945" opacity="0.72" class=""/>
    <circle cx="74" cy="135" r="3" fill="#69d2e7" opacity="0.72" class="pulse"/>
    <circle cx="62" cy="111" r="3" fill="#69d2e7" opacity="0.72" class=""/>
    <circle cx="88" cy="110" r="3" fill="#69d2e7" opacity="0.72" class=""/>
    <circle cx="135" cy="114" r="3" fill="#69d2e7" opacity="0.72" class="pulse"/>
    <circle cx="134" cy="113" r="3" fill="#69d2e7" opacity="0.72" class=""/>
    <circle cx="162" cy="90" r="3" fill="#2de38c" opacity="0.72" class=""/>
    <circle cx="187" cy="72" r="3" fill="#4f9dff" opacity="0.72" class="pulse"/>
    <circle cx="204" cy="80" r="3" fill="#4f9dff" opacity="0.72" class=""/>
    <circle cx="222" cy="109" r="3" fill="#4f9dff" opacity="0.72" class=""/>
    <circle cx="231" cy="101" r="3" fill="#4f9dff" opacity="0.72" class="pulse"/>
    <circle cx="245" cy="125" r="3" fill="#69d2e7" opacity="0.72" class=""/>
    <circle cx="256" cy="146" r="3" fill="#ff6b4a" opacity="0.72" class=""/>
    <circle cx="240" cy="161" r="3" fill="#f6c945" opacity="0.72" class="pulse"/>
    <g class="float">
      <circle cx="164" cy="164" r="39" fill="#0e261b" stroke="url(#accent)" stroke-width="2" filter="url(#softGlow)"/>
      <text x="164" y="155" fill="#f8fff9" text-anchor="middle" font-family="ui-sans-serif, system-ui, -apple-system, BlinkMacSystemFont, Segoe UI, sans-serif" font-size="28" font-weight="900" letter-spacing="0">69</text>
      <text x="164" y="181" fill="#d7fbe8" text-anchor="middle" font-family="ui-sans-serif, system-ui, -apple-system, BlinkMacSystemFont, Segoe UI, sans-serif" font-size="11" font-weight="800" letter-spacing="0">NOICE</text>
    </g>
  </g>

  <g transform="translate(568 384)">
    <text class="tiny" x="0" y="0">Generated Jul 3, 2026.</text>
    <text class="tiny" x="326" y="0" text-anchor="end">Open the repo for the full board.</text>
  </g>

</svg>